<?xml version="1.0" encoding="utf-8"?>
<!-- Generator: Adobe Illustrator 26.0.0, SVG Export Plug-In . SVG Version: 6.00 Build 0)  -->
<svg version="1.1" id="Capa_1" xmlns="http://www.w3.org/2000/svg" xmlns:xlink="http://www.w3.org/1999/xlink" x="0px" y="0px"
	 viewBox="0 0 1544.6 506.8" style="enable-background:new 0 0 1544.6 506.8;" xml:space="preserve">
<style type="text/css">
	.st0{fill:#f6f6f9;}
</style>
<g>
	<path id="JOTA_2_" class="st0" d="M284.5,81.6L187,311.2c-1.7,4-7.5,4-9.2,0l-19.1-45c-2.6-6.1-8.6-10.1-15.3-10.1H30
		c-5.4,0-9,5.5-6.9,10.4l59.3,139.7c2.6,6.1,8.6,10.1,15.3,10.1h168.9c6.7,0,12.7-4,15.3-10.1L419.6,81.8c2.1-4.9-1.5-10.4-6.9-10.4
		H299.8C293.1,71.4,287.1,75.4,284.5,81.6z"/>
	<path id="U_2_" class="st0" d="M763.9,71.4H649c-3,0-5.8,1.8-7,4.6L504.1,398.2c-1.1,2.6-1.1,5.5,0,8l3.4,7.9
		c0.9,2.1-0.6,4.4-2.9,4.4h-55.4c-4.2,0-7.1-4.3-5.4-8.2L584,79.7c1.7-3.9-1.2-8.2-5.4-8.2H463c-4.1,0-7.8,2.5-9.4,6.2L316.1,401.5
		c-1.1,2.6-1.1,5.5,0,8l35.5,83.6c1.6,3.8,5.3,6.2,9.4,6.2h219.2c7,0,13.3-4.2,16-10.6L770.9,82.2C773.1,77.1,769.4,71.4,763.9,71.4
		z"/>
	<path id="ENE_2_" class="st0" d="M1155.9,71.2h-112.7c-5.3,0-10.1,3.1-12.2,7.9l-77,180.1l18.3-180.4c0.4-3.9-2.7-7.3-6.6-7.3
		l-149.9-0.2c-5.3,0-10.1,3.1-12.2,7.9l-140.2,328c-1.9,4.4,1.3,9.3,6.1,9.3h112.7c5.3,0,10.1-3.1,12.2-8l65.3-152.7l-15.5,153.1
		c-0.4,3.9,2.7,7.3,6.6,7.3l44.9,0.1c0.4,0.1,113.9,0.1,113.9,0.1c5.3,0,10.1-3.1,12.2-8l140.2-328
		C1164,76.1,1160.8,71.2,1155.9,71.2z"/>
	<g id="I-1_2_">
		<path class="st0" d="M1191.3,105.7h117c4.8,0,8,4.9,6.1,9.2l-124.6,293.5c-2.1,4.9-6.9,8.1-12.2,8.1h-116.3c-4.8,0-8-4.9-6.1-9.2
			L1179,113.8C1181.1,108.9,1185.9,105.7,1191.3,105.7z"/>
		<path class="st0" d="M1234.6,7.4h113.3c5.6,0,9.3,5.7,7.2,10.8l-18.3,43c-2.4,5.7-8.1,9.5-14.3,9.5h-113.7
			c-5.6,0-9.3-5.7-7.1-10.9l18.7-43.1C1222.8,11.1,1228.4,7.4,1234.6,7.4z"/>
	</g>
	<g id="I-2_2_">
		<path class="st0" d="M1357.8,105.7h117c4.8,0,8,4.9,6.1,9.2l-124.6,293.5c-2.1,4.9-6.9,8.1-12.2,8.1h-116.3c-4.8,0-8-4.9-6.1-9.2
			l123.9-293.5C1347.6,108.9,1352.4,105.7,1357.8,105.7z"/>
		<path class="st0" d="M1401,7.4h113.3c5.6,0,9.3,5.7,7.2,10.8l-18.3,43c-2.4,5.7-8.1,9.5-14.3,9.5h-113.7c-5.6,0-9.3-5.7-7.1-10.9
			l18.7-43.1C1389.2,11.1,1394.8,7.4,1401,7.4z"/>
	</g>
</g>
</svg>
